<svg width="100%" height="100%" viewBox="0 0 516 410" version="1.1" xmlns="http://www.w3.org/2000/svg" xmlns:xlink="http://www.w3.org/1999/xlink" xml:space="preserve" style="fill-rule:evenodd;clip-rule:evenodd;stroke-linejoin:round;stroke-miterlimit:1.41421;"><title>Adam Wills - Web Developer</title><g id="Layer1"><g><path d="M281.537,10.65l-41.018,0l133.859,267.718l133.859,-267.718l-41.019,0l-92.84,185.681l-92.841,-185.681Z" style="fill:#0c0d0a;"/><path d="M182.641,10.65l-41.019,0l133.859,267.718l133.859,-267.718l-41.018,0l-92.841,185.681l-92.84,-185.681Z" style="fill:#0c0d0a;"/></g><path d="M48.782,277.575l-41.019,0l133.859,-267.718l133.859,267.718l-41.018,0l-92.841,-185.681l-92.84,185.681Z" style="fill:#d40d0a;"/></g><g id="Layer2"><g><path d="M10.737,366.678l10.222,26.241l10.679,-28.148l10.221,28.148l10.858,-26.241l6.433,0l-17.545,41.751l-10.094,-27.817l-10.527,27.842l-16.68,-41.776l6.433,0Z" style="fill:#666;fill-rule:nonzero;"/><path d="M85.695,372.247l-15.739,0l0,9.433l15.282,0l0,5.568l-15.282,0l0,13.121l15.739,0l0,5.568l-21.663,0l0,-39.259l21.663,0l0,5.569Z" style="fill:#666;fill-rule:nonzero;"/><path d="M93.476,405.937l0,-39.259l5.899,0c2.627,0 4.721,0.204 6.28,0.61c1.577,0.407 2.907,1.094 3.992,2.06c1.102,1 1.975,2.246 2.619,3.738c0.661,1.508 0.992,3.034 0.992,4.576c0,2.814 -1.076,5.196 -3.229,7.145c2.085,0.712 3.729,1.958 4.933,3.738c1.22,1.763 1.83,3.814 1.83,6.153c0,3.069 -1.085,5.662 -3.254,7.781c-1.306,1.305 -2.772,2.212 -4.399,2.721c-1.78,0.491 -4.009,0.737 -6.687,0.737l-8.976,0ZM99.4,383.536l1.856,0c2.204,0 3.819,-0.487 4.844,-1.462c1.026,-0.975 1.539,-2.411 1.539,-4.31c0,-1.847 -0.526,-3.25 -1.577,-4.208c-1.051,-0.958 -2.576,-1.437 -4.577,-1.437l-2.085,0l0,11.417ZM99.4,400.369l3.662,0c2.678,0 4.644,-0.526 5.899,-1.577c1.322,-1.136 1.983,-2.576 1.983,-4.322c0,-1.696 -0.636,-3.119 -1.907,-4.272c-1.237,-1.136 -3.449,-1.704 -6.636,-1.704l-3.001,0l0,11.875Z" style="fill:#666;fill-rule:nonzero;"/><path d="M140.337,405.937l0,-39.259l8.239,0c3.949,0 7.068,0.39 9.357,1.17c2.458,0.763 4.687,2.059 6.687,3.89c4.051,3.695 6.077,8.552 6.077,14.57c0,6.034 -2.11,10.916 -6.331,14.645c-2.119,1.865 -4.34,3.162 -6.662,3.891c-2.17,0.729 -5.246,1.093 -9.23,1.093l-8.137,0ZM146.262,400.369l2.67,0c2.661,0 4.873,-0.28 6.636,-0.839c1.763,-0.594 3.356,-1.535 4.78,-2.823c2.916,-2.661 4.374,-6.128 4.374,-10.399c0,-4.306 -1.441,-7.798 -4.323,-10.476c-2.593,-2.39 -6.416,-3.585 -11.467,-3.585l-2.67,0l0,28.122Z" style="fill:#666;fill-rule:nonzero;"/><path d="M199.811,372.247l-15.739,0l0,9.433l15.281,0l0,5.568l-15.281,0l0,13.121l15.739,0l0,5.568l-21.664,0l0,-39.259l21.664,0l0,5.569Z" style="fill:#666;fill-rule:nonzero;"/><path d="M209.575,366.678l10.857,27.207l11.01,-27.207l6.484,0l-17.621,42.209l-17.214,-42.209l6.484,0Z" style="fill:#666;fill-rule:nonzero;"/><path d="M264.471,372.247l-15.739,0l0,9.433l15.281,0l0,5.568l-15.281,0l0,13.121l15.739,0l0,5.568l-21.664,0l0,-39.259l21.664,0l0,5.569Z" style="fill:#666;fill-rule:nonzero;"/><path d="M278.176,366.678l0,33.691l11.544,0l0,5.568l-17.468,0l0,-39.259l5.924,0Z" style="fill:#666;fill-rule:nonzero;"/><path d="M291.78,386.13c0,-5.526 2.025,-10.273 6.077,-14.239c4.034,-3.967 8.882,-5.95 14.544,-5.95c5.594,0 10.391,2 14.391,6c4.018,4.001 6.026,8.807 6.026,14.417c0,5.645 -2.017,10.434 -6.051,14.367c-4.052,3.949 -8.942,5.924 -14.671,5.924c-5.069,0 -9.62,-1.754 -13.655,-5.263c-4.441,-3.882 -6.661,-8.967 -6.661,-15.256ZM297.755,386.206c0,4.339 1.458,7.908 4.373,10.705c2.899,2.797 6.247,4.195 10.044,4.195c4.119,0 7.594,-1.424 10.425,-4.272c2.831,-2.881 4.246,-6.39 4.246,-10.526c0,-4.187 -1.398,-7.696 -4.195,-10.527c-2.78,-2.848 -6.221,-4.272 -10.324,-4.272c-4.085,0 -7.534,1.424 -10.348,4.272c-2.814,2.814 -4.221,6.289 -4.221,10.425Z" style="fill:#666;fill-rule:nonzero;"/><path d="M346.193,389.994l0,15.943l-5.925,0l0,-39.259l6.713,0c3.289,0 5.772,0.229 7.45,0.687c1.695,0.457 3.187,1.322 4.475,2.593c2.255,2.204 3.382,4.984 3.382,8.34c0,3.594 -1.204,6.442 -3.611,8.544c-2.407,2.102 -5.653,3.152 -9.738,3.152l-2.746,0ZM346.193,384.502l2.212,0c5.441,0 8.162,-2.093 8.162,-6.28c0,-4.051 -2.805,-6.077 -8.416,-6.077l-1.958,0l0,12.357Z" style="fill:#666;fill-rule:nonzero;"/><path d="M367.017,405.937l8.264,-42.208l13.476,30.512l13.96,-30.512l7.424,42.208l-6.077,0l-3.788,-23.698l-11.62,25.503l-11.29,-25.528l-4.221,23.723l-6.128,0Z" style="fill:#666;fill-rule:nonzero;"/><path d="M440.119,372.247l-15.739,0l0,9.433l15.282,0l0,5.568l-15.282,0l0,13.121l15.739,0l0,5.568l-21.663,0l0,-39.259l21.663,0l0,5.569Z" style="fill:#666;fill-rule:nonzero;"/><path d="M447.9,405.937l0,-41.929l28.631,29.953l0,-27.283l5.924,0l0,41.649l-28.631,-29.876l0,27.486l-5.924,0Z" style="fill:#666;fill-rule:nonzero;"/><path d="M502.695,372.247l0,33.69l-5.925,0l0,-33.69l-9.026,0l0,-5.569l23.952,0l0,5.569l-9.001,0Z" style="fill:#666;fill-rule:nonzero;"/></g><g><path d="M50.367,338.078l-25.979,0l-6.76,14.739l-9.865,0l30.027,-64.495l28.966,64.495l-10.022,0l-6.367,-14.739ZM46.633,329.471l-9,-20.633l-9.432,20.633l18.432,0Z" style="fill:#000;fill-rule:nonzero;"/><path d="M74.341,352.817l0,-60.683l12.734,0c6.105,0 10.926,0.603 14.463,1.808c3.799,1.179 7.245,3.184 10.337,6.013c6.262,5.712 9.393,13.219 9.393,22.52c0,9.328 -3.262,16.874 -9.786,22.638c-3.275,2.883 -6.708,4.887 -10.297,6.014c-3.354,1.126 -8.11,1.69 -14.267,1.69l-12.577,0ZM83.499,344.209l4.126,0c4.114,0 7.533,-0.432 10.258,-1.296c2.725,-0.918 5.188,-2.372 7.389,-4.363c4.507,-4.114 6.76,-9.472 6.76,-16.075c0,-6.655 -2.227,-12.052 -6.681,-16.192c-4.009,-3.694 -9.918,-5.542 -17.726,-5.542l-4.126,0l0,43.468Z" style="fill:#000;fill-rule:nonzero;"/><path d="M165.444,338.078l-25.979,0l-6.76,14.739l-9.865,0l30.027,-64.495l28.965,64.495l-10.022,0l-6.366,-14.739ZM161.71,329.471l-9,-20.633l-9.433,20.633l18.433,0Z" style="fill:#000;fill-rule:nonzero;"/><path d="M187.295,352.817l12.774,-65.242l20.83,47.163l21.577,-47.163l11.476,65.242l-9.393,0l-5.856,-36.63l-17.961,39.42l-17.451,-39.459l-6.524,36.669l-9.472,0Z" style="fill:#000;fill-rule:nonzero;"/><path d="M294.63,292.134l15.799,40.56l16.507,-43.507l15.799,43.507l16.782,-40.56l9.944,0l-27.119,64.534l-15.603,-42.996l-16.271,43.036l-25.782,-64.574l9.944,0Z" style="fill:#000;fill-rule:nonzero;"/><rect x="377.007" y="292.134" width="9.157" height="60.682" style="fill:#000;fill-rule:nonzero;"/><path d="M409.903,292.134l0,52.075l17.843,0l0,8.608l-27.001,0l0,-60.683l9.158,0Z" style="fill:#000;fill-rule:nonzero;"/><path d="M445.589,292.134l0,52.075l17.843,0l0,8.608l-27,0l0,-60.683l9.157,0Z" style="fill:#000;fill-rule:nonzero;"/><path d="M506.664,301.174l-7.428,4.401c-1.388,-2.41 -2.711,-3.982 -3.969,-4.716c-1.31,-0.838 -3,-1.257 -5.07,-1.257c-2.542,0 -4.651,0.72 -6.328,2.161c-1.677,1.415 -2.515,3.197 -2.515,5.345c0,2.961 2.201,5.345 6.603,7.153l6.052,2.476c4.926,1.992 8.529,4.422 10.808,7.291c2.28,2.869 3.42,6.386 3.42,10.552c0,5.581 -1.861,10.193 -5.581,13.835c-3.747,3.668 -8.398,5.502 -13.953,5.502c-5.266,0 -9.615,-1.559 -13.048,-4.677c-3.38,-3.118 -5.489,-7.507 -6.328,-13.166l9.276,-2.044c0.419,3.564 1.153,6.027 2.201,7.389c1.886,2.62 4.637,3.93 8.253,3.93c2.856,0 5.227,-0.956 7.114,-2.869c1.886,-1.913 2.83,-4.336 2.83,-7.271c0,-1.179 -0.164,-2.26 -0.492,-3.242c-0.327,-0.983 -0.838,-1.887 -1.532,-2.712c-0.695,-0.825 -1.592,-1.598 -2.693,-2.319c-1.1,-0.72 -2.41,-1.408 -3.93,-2.063l-5.856,-2.437c-8.306,-3.511 -12.459,-8.646 -12.459,-15.406c0,-4.559 1.743,-8.372 5.228,-11.437c3.484,-3.092 7.821,-4.638 13.009,-4.638c6.995,0 12.458,3.406 16.388,10.219Z" style="fill:#000;fill-rule:nonzero;"/></g></g></svg>